<?xml version="1.0" standalone="no"?>
<!DOCTYPE svg PUBLIC "-//W3C//DTD SVG 20010904//EN"
 "http://www.w3.org/TR/2001/REC-SVG-20010904/DTD/svg10.dtd">
<svg version="1.0" xmlns="http://www.w3.org/2000/svg"
 width="3125.000000pt" height="3125.000000pt" viewBox="0 0 3125.000000 3125.000000"
 preserveAspectRatio="xMidYMid meet">
<metadata>
Created by potrace 1.14, written by Peter Selinger 2001-2017
</metadata>
<g transform="translate(0.000000,3125.000000) scale(0.100000,-0.100000)"
fill="#000000" stroke="none">
<path d="M22445 27040 c-969 -78 -1837 -467 -2532 -1134 -277 -265 -456 -541
-567 -876 -77 -233 -106 -413 -106 -670 0 -330 69 -628 212 -915 28 -55 108
-192 178 -305 697 -1125 1071 -2256 1192 -3610 9 -95 13 -310 13 -620 -1 -495
-8 -624 -55 -1000 -272 -2142 -1402 -4066 -3150 -5362 -1023 -758 -2227 -1258
-3500 -1452 -329 -50 -591 -74 -945 -85 -1224 -40 -2436 202 -3545 706 -300
137 -536 263 -863 459 -220 133 -291 170 -437 229 -269 108 -516 154 -822 155
-102 0 -227 -6 -295 -15 -399 -52 -782 -210 -1105 -456 -119 -91 -1894 -1860
-2011 -2004 -114 -140 -187 -256 -272 -430 -111 -226 -172 -422 -212 -680 -24
-153 -24 -478 0 -635 90 -585 374 -1087 817 -1442 181 -145 702 -482 1110
-718 2554 -1476 5483 -2153 8420 -1944 3332 236 6480 1597 8940 3864 2577
2375 4225 5603 4639 9085 74 622 95 1002 96 1725 0 595 -5 750 -41 1190 -93
1174 -335 2358 -709 3475 -233 698 -441 1190 -642 1520 -408 672 -999 1206
-1708 1546 -422 202 -858 326 -1345 384 -159 19 -595 28 -755 15z"/>
<path d="M12575 25110 c-981 -85 -1894 -472 -2615 -1108 -187 -164 -2101
-2088 -2202 -2212 -324 -400 -555 -791 -731 -1240 -317 -804 -394 -1693 -222
-2545 155 -770 492 -1457 1011 -2065 111 -130 1811 -1839 2035 -2046 349 -322
677 -548 1094 -754 517 -255 1032 -398 1625 -450 160 -15 567 -15 735 0 973
83 1850 451 2591 1087 145 124 2091 2072 2196 2198 526 631 868 1364 1002
2145 52 301 61 412 61 780 0 368 -9 479 -61 780 -139 811 -514 1590 -1067
2215 -183 206 -2042 2055 -2188 2176 -276 227 -539 401 -839 553 -503 256
-981 400 -1555 472 -151 18 -711 28 -870 14z m755 -2695 c506 -70 893 -254
1093 -518 65 -86 619 -1011 687 -1147 251 -503 201 -1108 -129 -1571 -33 -45
-184 -221 -338 -392 -153 -170 -279 -312 -281 -316 -1 -3 358 -407 797 -896
440 -489 813 -912 830 -940 133 -220 111 -507 -54 -704 -85 -103 -113 -118
-570 -304 -236 -97 -460 -189 -496 -206 -94 -43 -175 -61 -271 -61 -166 0
-306 58 -429 179 -43 42 -335 362 -649 711 -314 349 -574 636 -578 638 -4 1
-275 -296 -602 -659 -327 -364 -620 -685 -651 -713 -110 -102 -250 -156 -409
-156 -104 0 -175 18 -300 74 -52 24 -270 114 -485 201 -214 87 -408 171 -431
186 -22 15 -68 57 -102 93 -117 126 -176 307 -155 475 14 105 42 183 97 264
22 34 392 451 821 927 430 476 784 871 788 877 5 8 -92 123 -274 325 -302 334
-358 404 -437 542 -209 364 -249 811 -110 1240 47 146 102 248 407 761 322
540 347 578 449 677 230 224 597 369 1072 424 151 17 553 11 710 -11z"/>
<path d="M12770 22133 c-363 -26 -664 -110 -885 -248 -38 -24 -102 -76 -141
-117 -73 -76 -60 -55 -546 -872 -200 -337 -253 -475 -280 -734 -31 -296 62
-604 254 -843 29 -36 766 -857 1637 -1823 1051 -1167 1598 -1767 1628 -1786
55 -35 139 -54 196 -45 23 4 76 22 117 40 41 18 259 108 485 199 443 180 452
185 503 281 23 43 27 62 27 135 0 105 -21 150 -122 260 -193 211 -2944 3279
-3353 3740 -299 337 -320 361 -320 370 0 13 206 99 323 134 181 55 333 77 568
83 399 11 716 -49 989 -187 55 -28 60 -33 48 -48 -37 -48 -200 -237 -431 -500
-142 -161 -257 -297 -255 -301 2 -5 227 -257 500 -560 l497 -551 243 270 c133
148 262 298 286 332 59 85 127 221 162 326 91 276 77 603 -38 869 -40 94 -605
1055 -679 1154 -135 185 -452 333 -838 393 -186 29 -417 41 -575 29z"/>
<path d="M12780 20604 c-88 -8 -264 -35 -278 -43 -10 -6 45 -74 208 -257 123
-137 228 -249 235 -249 12 0 457 496 451 503 -2 2 -57 12 -122 23 -115 19
-395 32 -494 23z"/>
<path d="M10905 17326 c-568 -632 -756 -846 -773 -885 -36 -80 -33 -174 8
-257 17 -35 46 -76 65 -91 18 -14 228 -106 467 -203 238 -98 454 -187 481
-199 95 -44 202 -37 290 19 27 17 267 275 636 685 l593 657 -30 32 c-16 17
-240 265 -497 551 -257 286 -472 521 -479 522 -6 1 -348 -373 -761 -831z"/>
</g>
</svg>
